<svg width="16" height="16" viewBox="0 0 16 16" fill="none" xmlns="http://www.w3.org/2000/svg">
<path fill-rule="evenodd" clip-rule="evenodd" d="M13.1374 0.304368L13.3499 0.331035C13.9116 0.408535 14.6549 0.512701 15.0758 0.934368C15.4208 1.27853 15.5533 1.83853 15.6324 2.33853L15.6791 2.6602C15.7841 3.41853 15.8116 4.41187 15.6324 5.5152C15.2791 7.6927 14.1199 10.291 11.2091 12.3027C11.1933 12.4594 11.1924 12.6177 11.1958 12.776L11.2041 13.0127C11.2174 13.3769 11.2308 13.741 11.1291 14.0944C10.9708 14.6444 10.4066 15.0069 9.87909 15.2669L9.62075 15.3894L9.28742 15.536C8.66409 15.801 7.82242 16.0727 7.29492 15.5444C6.97825 15.2285 6.84825 14.7652 6.74242 14.3044L6.70325 14.1319C6.65913 13.9141 6.60349 13.6988 6.53659 13.4869C6.49492 13.3652 6.44992 13.241 6.40159 13.116C6.34839 13.1813 6.29193 13.2439 6.23242 13.3035C5.94492 13.591 5.51575 13.7919 5.16242 13.9327C4.77659 14.0852 4.33992 14.2185 3.93575 14.3285L3.72825 14.3835L3.33075 14.4827L2.97075 14.566L2.53992 14.6577L2.27075 14.7102C2.13651 14.7351 1.99824 14.7269 1.86786 14.6864C1.73748 14.6459 1.61891 14.5743 1.52237 14.4777C1.42583 14.3812 1.35423 14.2626 1.31373 14.1323C1.27324 14.0019 1.26506 13.8636 1.28992 13.7294L1.36158 13.3702L1.48992 12.7885L1.59325 12.3635L1.67159 12.0635C1.78158 11.6602 1.91492 11.2235 2.06825 10.8385C2.20825 10.4844 2.40909 10.0552 2.69659 9.7677L2.76325 9.70353L2.70992 9.68186C2.5675 9.62772 2.42325 9.57852 2.27742 9.53436L2.04658 9.46353C1.46825 9.28853 0.849918 9.1002 0.465751 8.7152C-0.000915244 8.24936 0.156585 7.5402 0.381585 6.9502L0.473251 6.72187L0.620751 6.38853L0.743251 6.1302C1.00325 5.60353 1.36575 5.03937 1.91575 4.88103C2.20742 4.7977 2.51075 4.7927 2.81575 4.80103L2.99909 4.80687C3.23742 4.8152 3.47492 4.82437 3.70742 4.80187C5.71909 1.8902 8.31742 0.731034 10.4949 0.377701C11.3684 0.23443 12.2573 0.209763 13.1374 0.304368ZM4.96075 10.8669C4.8296 10.7698 4.67285 10.7133 4.50992 10.7044C4.34698 10.6955 4.18502 10.7346 4.04409 10.8169L3.95242 10.8785L3.87492 10.9477L3.77075 11.0794C3.55409 11.3927 3.43075 11.826 3.33492 12.231L3.24492 12.621L3.20242 12.7985L3.36159 12.7602L3.70992 12.6802C4.19159 12.5677 4.72575 12.4219 5.05409 12.126C5.19685 11.9833 5.28297 11.7937 5.29645 11.5923C5.30994 11.3909 5.24988 11.1915 5.12742 11.031L5.05908 10.9527L5.03908 10.9335L4.96075 10.8669ZM10.9466 5.0552C10.7918 4.9004 10.6081 4.7776 10.4059 4.69381C10.2037 4.61001 9.98701 4.56686 9.76813 4.56682C9.54925 4.56678 9.33251 4.60986 9.13029 4.69358C8.92806 4.77731 8.7443 4.90004 8.5895 5.05478C8.43471 5.20952 8.3119 5.39324 8.22811 5.59544C8.14431 5.79764 8.10116 6.01436 8.10113 6.23324C8.10109 6.45211 8.14416 6.66885 8.22788 6.87108C8.31161 7.07331 8.43434 7.25707 8.58909 7.41187C8.9016 7.72449 9.3255 7.90016 9.76754 7.90024C10.2096 7.90032 10.6335 7.7248 10.9462 7.41228C11.2588 7.09977 11.4345 6.67587 11.4345 6.23383C11.4346 5.79179 11.2591 5.36782 10.9466 5.0552Z" fill="black"/>
</svg>
