<svg width="16" height="17" viewBox="0 0 16 17" fill="none" xmlns="http://www.w3.org/2000/svg">
<path d="M7.0026 15.1673C3.5048 15.1673 0.669271 12.1825 0.669271 8.50065C0.669271 4.81875 3.5048 1.83398 7.0026 1.83398C10.5004 1.83398 13.3359 4.81875 13.3359 8.50065C13.3359 12.1825 10.5004 15.1673 7.0026 15.1673Z" stroke="#998A00" stroke-linecap="round" stroke-linejoin="round"/>
<path d="M8.66797 6.36732C8.24366 6.02325 7.71424 5.83501 7.16797 5.83398C5.7873 5.83398 4.66797 7.02732 4.66797 8.50065C4.66797 9.97398 5.7873 11.1673 7.16797 11.1673C7.73064 11.1673 8.24997 10.9687 8.66797 10.634" stroke="#998A00" stroke-linecap="round" stroke-linejoin="round"/>
<path d="M6.66797 1.83398C9.55664 1.83398 15.3346 2.50065 15.3346 8.50065C15.3346 14.5007 9.55664 15.1673 6.66797 15.1673" stroke="#998A00"/>
</svg>
