<svg width="25" height="24" viewBox="0 0 25 24" fill="none" xmlns="http://www.w3.org/2000/svg">
<path d="M6.5 11C6.5 8.172 6.5 6.757 7.379 5.879C8.257 5 9.672 5 12.5 5H15.5C18.328 5 19.743 5 20.621 5.879C21.5 6.757 21.5 8.172 21.5 11V16C21.5 18.828 21.5 20.243 20.621 21.121C19.743 22 18.328 22 15.5 22H12.5C9.672 22 8.257 22 7.379 21.121C6.5 20.243 6.5 18.828 6.5 16V11Z" stroke="#757575" stroke-width="1.5"/>
<path opacity="0.5" d="M6.5 19C5.70435 19 4.94129 18.6839 4.37868 18.1213C3.81607 17.5587 3.5 16.7956 3.5 16V10C3.5 6.229 3.5 4.343 4.672 3.172C5.843 2 7.729 2 11.5 2H15.5C16.2956 2 17.0587 2.31607 17.6213 2.87868C18.1839 3.44129 18.5 4.20435 18.5 5" stroke="#757575" stroke-width="1.5"/>
</svg>
