<svg width="25" height="24" viewBox="0 0 25 24" fill="none" xmlns="http://www.w3.org/2000/svg">
<path d="M12.5 19.9991C13.75 19.9991 14.8127 19.5618 15.688 18.6871C16.5633 17.8124 17.0007 16.7498 17 15.4991C17 14.2491 16.5627 13.1868 15.688 12.3121C14.8133 11.4374 13.7507 10.9998 12.5 10.9991C11.25 10.9991 10.1877 11.4368 9.313 12.3121C8.43833 13.1874 8.00067 14.2498 8 15.4991C8 16.7491 8.43767 17.8118 9.313 18.6871C10.1883 19.5624 11.2507 19.9998 12.5 19.9991ZM9.613 10.8341C9.93367 10.6248 10.2753 10.4564 10.638 10.3291C11.0007 10.2018 11.3733 10.1084 11.756 10.0491L9.48 5.53711H6.98L9.613 10.8341ZM15.387 10.8341L18.044 5.53711H15.52L13.338 9.86411L13.448 10.0841C13.796 10.1508 14.1327 10.2441 14.458 10.3641C14.7847 10.4841 15.0937 10.6408 15.387 10.8341ZM7.728 18.9341C7.73933 18.8221 7.76533 18.6988 7.806 18.5641C7.846 18.4288 7.90467 18.2854 7.982 18.1341C7.674 17.6361 7.45167 17.0984 7.315 16.5211C7.179 15.9438 7.14367 15.3491 7.209 14.7371C7.209 14.2371 7.29567 13.7628 7.469 13.3141C7.64167 12.8654 7.88167 12.4618 8.189 12.1031C7.951 12.1438 7.74167 12.2294 7.561 12.3601C7.38033 12.4908 7.25133 12.6461 7.174 12.8261C6.43067 13.0068 5.85133 13.4251 5.436 14.0811C5.02067 14.7364 4.89367 15.4631 5.055 16.2611C5.055 17.0044 5.31467 17.6358 5.834 18.1551C6.35333 18.6744 6.98467 18.9341 7.728 18.9341ZM17.274 18.9341C18.1793 18.8801 18.9433 18.5251 19.566 17.8691C20.1893 17.2138 20.501 16.4238 20.501 15.4991C20.501 14.5744 20.1893 13.7844 19.566 13.1291C18.9433 12.4731 18.1793 12.1181 17.274 12.0641C17.1973 12.0641 17.1207 12.0674 17.044 12.0741C16.9667 12.0808 16.8897 12.0904 16.813 12.1031C17.1863 12.5738 17.4777 13.0978 17.687 13.6751C17.8963 14.2524 18.001 14.8604 18.001 15.4991C18.001 16.1378 17.8963 16.7458 17.687 17.3231C17.477 17.9004 17.1857 18.4244 16.813 18.8951C16.8897 18.9084 16.9663 18.9181 17.043 18.9241C17.1203 18.9308 17.1973 18.9341 17.274 18.9341ZM12.5 20.9991C11.8587 20.9991 11.2533 20.9001 10.684 20.7021C10.114 20.5041 9.59633 20.2191 9.131 19.8471C8.955 19.9064 8.76967 19.9464 8.575 19.9671C8.38033 19.9884 8.18033 19.9991 7.975 19.9991C6.74033 19.9991 5.686 19.5618 4.812 18.6871C3.93733 17.8131 3.5 16.7588 3.5 15.5241C3.5 14.3048 3.92567 13.2618 4.777 12.3951C5.62833 11.5284 6.65967 11.0818 7.871 11.0551C8.01233 11.0551 8.147 11.0648 8.275 11.0841C8.403 11.1028 8.53133 11.1251 8.66 11.1511L5.346 4.53711H10.116L12.5 9.30711L14.885 4.53711H19.654L16.384 11.0821C16.5 11.0561 16.6187 11.0368 16.74 11.0241C16.862 11.0108 16.987 11.0041 17.115 11.0041C18.3397 11.0354 19.3767 11.4844 20.226 12.3511C21.0753 13.2178 21.5 14.2671 21.5 15.4991C21.5 16.7504 21.0627 17.8131 20.188 18.6871C19.314 19.5618 18.2513 19.9991 17 19.9991C16.7987 19.9991 16.603 19.9884 16.413 19.9671C16.223 19.9458 16.0397 19.9058 15.863 19.8471C15.3977 20.2064 14.881 20.4881 14.313 20.6921C13.7457 20.8968 13.1413 20.9991 12.5 20.9991ZM10.938 17.7871L11.523 15.8591L9.962 14.7451H11.89L12.5 12.7111L13.11 14.7451H15.038L13.477 15.8591L14.062 17.7871L12.5 16.5991L10.938 17.7871Z" fill="#212121"/>
</svg>
