<svg width="16" height="16" viewBox="0 0 16 16" fill="none" xmlns="http://www.w3.org/2000/svg">
<path d="M4.66666 9.23037C5.00889 9.23037 5.29955 9.11081 5.53866 8.8717C5.77778 8.63215 5.89733 8.34148 5.89733 7.9997C5.89733 7.65793 5.77778 7.36726 5.53866 7.1277C5.29911 6.88859 5.00844 6.76904 4.66666 6.76904C4.32489 6.76904 4.03422 6.88859 3.79466 7.1277C3.55555 7.36726 3.436 7.65793 3.436 7.9997C3.436 8.34148 3.55555 8.63215 3.79466 8.8717C4.03422 9.11081 4.32489 9.23037 4.66666 9.23037ZM4.66666 11.1537C3.77778 11.1537 3.03 10.8501 2.42333 10.243C1.81622 9.63637 1.51266 8.88859 1.51266 7.9997C1.51266 7.11081 1.81622 6.36304 2.42333 5.75637C3.03 5.14926 3.77778 4.8457 4.66666 4.8457C5.42133 4.8457 6.07489 5.05859 6.62733 5.48437C7.18022 5.91015 7.53444 6.41526 7.69 6.9997H13.722L14.718 7.9957L13.0647 9.75237L11.846 8.83304L10.628 9.79437L9.59 8.9997H7.69C7.53178 9.59437 7.17444 10.1021 6.618 10.523C6.06155 10.9435 5.41111 11.1537 4.66666 11.1537Z" fill="#757575"/>
</svg>
