<svg width="166" height="119" viewBox="0 0 166 119" fill="none" xmlns="http://www.w3.org/2000/svg">
<path id="Vector 1" d="M165.641 8.95815C166.065 8.604 166.121 7.97336 165.767 7.54957L159.996 0.643499C159.642 0.219708 159.011 0.163251 158.588 0.517398C158.164 0.871545 158.107 1.50219 158.462 1.92598L163.591 8.0647L157.453 13.1946C157.029 13.5488 156.972 14.1794 157.327 14.6032C157.681 15.027 158.311 15.0834 158.735 14.7293L165.641 8.95815ZM61.1639 76.6059L61.3601 77.5864L61.386 77.5813L61.4116 77.5747L61.1639 76.6059ZM29.3553 53.2941L29.0598 52.3387L29.3553 53.2941ZM43.7697 117.001C42.6656 116.944 41.5822 116.863 40.5197 116.76L40.3261 118.751C41.419 118.857 42.5326 118.94 43.6664 118.999L43.7697 117.001ZM34.1248 115.823C31.9379 115.388 29.858 114.849 27.8867 114.218L27.2771 116.123C29.3227 116.778 31.476 117.335 33.7347 117.784L34.1248 115.823ZM21.8887 111.868C19.8778 110.921 18.0148 109.866 16.3021 108.721L15.1903 110.383C16.9884 111.586 18.9385 112.69 21.0366 113.678L21.8887 111.868ZM11.308 104.74C9.71672 103.226 8.32577 101.617 7.13812 99.9386L5.50553 101.094C6.77045 102.881 8.24713 104.588 9.92945 106.189L11.308 104.74ZM4.05385 94.4062C3.22246 92.4251 2.64109 90.3905 2.3141 88.3354L0.338945 88.6496C0.691619 90.8662 1.31781 93.0549 2.20966 95.1801L4.05385 94.4062ZM2.10984 82.0399C2.30474 79.9715 2.75984 77.9119 3.48204 75.8933L1.59893 75.2195C0.820898 77.3942 0.329271 79.6171 0.118663 81.8523L2.10984 82.0399ZM6.29742 70.2361C7.40734 68.5264 8.73805 66.8722 10.2959 65.298L8.87429 63.8912C7.22408 65.5588 5.80677 67.3188 4.61992 69.147L6.29742 70.2361ZM15.1726 61.1786C16.8359 59.9976 18.6638 58.8888 20.6598 57.8671L19.7485 56.0868C17.6709 57.1502 15.7602 58.3085 14.0147 59.5479L15.1726 61.1786ZM26.571 55.2904C27.5657 54.9242 28.5922 54.5768 29.6508 54.2494L29.0598 52.3387C27.9684 52.6763 26.9086 53.0349 25.8801 53.4136L26.571 55.2904ZM29.6508 54.2494C30.6737 53.9331 31.726 53.6536 32.8024 53.4095L32.36 51.459C31.2369 51.7137 30.1348 52.0063 29.0598 52.3387L29.6508 54.2494ZM39.2777 52.3799C41.4402 52.1678 43.6457 52.0716 45.8566 52.08L45.8641 50.08C43.5908 50.0714 41.3174 50.1703 39.0826 50.3894L39.2777 52.3799ZM52.4453 52.4057C54.6731 52.6156 56.8638 52.9225 58.9764 53.3135L59.3404 51.3469C57.1691 50.945 54.9196 50.6299 52.6329 50.4145L52.4453 52.4057ZM65.3947 54.829C67.6398 55.4851 69.7075 56.2374 71.5332 57.0625L72.357 55.24C70.4333 54.3706 68.276 53.5874 65.9556 52.9093L65.3947 54.829ZM77.0149 60.3664C78.9839 62.0456 79.7786 63.6776 79.5814 65.1754L81.5643 65.4364C81.8908 62.9566 80.5027 60.7124 78.3127 58.8447L77.0149 60.3664ZM76.0697 69.6712C74.6564 70.6526 72.7855 71.6421 70.3896 72.6163L71.1429 74.469C73.6321 73.4569 75.643 72.4024 77.2104 71.3141L76.0697 69.6712ZM64.1523 74.7531C63.1305 75.0517 62.0524 75.3466 60.9162 75.6371L61.4116 77.5747C62.5682 77.279 63.6683 76.9782 64.7134 76.6728L64.1523 74.7531ZM60.9677 75.6253C59.8326 75.8525 58.7335 76.0256 57.671 76.1476L57.8992 78.1346C59.0193 78.0059 60.1733 77.824 61.3601 77.5864L60.9677 75.6253ZM51.1408 76.2367C48.8051 76.0011 46.7307 75.4636 44.9242 74.6779L44.1265 76.512C46.1414 77.3883 48.4198 77.9724 50.9401 78.2266L51.1408 76.2367ZM39.7699 71.0759C38.346 69.5369 37.2894 67.7076 36.6256 65.6519L34.7224 66.2665C35.4717 68.5869 36.6723 70.6729 38.3019 72.4342L39.7699 71.0759ZM35.8173 59.3262C35.8988 57.3035 36.2732 55.1633 36.9605 52.9474L35.0502 52.3549C34.3161 54.7218 33.9081 57.0341 33.819 59.2457L35.8173 59.3262ZM39.5185 46.9455C40.5108 45.1134 41.7087 43.26 43.1207 41.4075L41.53 40.1952C40.059 42.1252 38.804 44.0651 37.7599 45.9931L39.5185 46.9455ZM47.4579 36.4248C48.9474 34.9111 50.5874 33.412 52.3821 31.9402L51.1138 30.3937C49.2663 31.9089 47.5735 33.4558 46.0323 35.0221L47.4579 36.4248ZM57.7439 27.9486C59.5208 26.7454 61.4129 25.5705 63.4227 24.4318L62.4367 22.6917C60.382 23.8559 58.4447 25.0587 56.6225 26.2925L57.7439 27.9486ZM69.3531 21.3473C71.3025 20.4173 73.3434 19.5205 75.4775 18.662L74.7311 16.8065C72.5592 17.6802 70.4799 18.5938 68.4919 19.5422L69.3531 21.3473ZM81.7379 16.349C83.7897 15.6547 85.9161 14.9945 88.1183 14.3719L87.5742 12.4473C85.3401 13.0789 83.1813 13.7492 81.0968 14.4546L81.7379 16.349ZM94.6052 12.7018C96.7377 12.2043 98.9337 11.7408 101.194 11.3139L100.823 9.34869C98.5353 9.7807 96.3115 10.2501 94.1508 10.7541L94.6052 12.7018ZM107.847 10.1936C109.997 9.87412 112.199 9.58657 114.455 9.33293L114.232 7.34545C111.952 7.6017 109.727 7.89231 107.553 8.21533L107.847 10.1936ZM121.156 8.69358C123.358 8.5199 125.608 8.37743 127.905 8.26777L127.809 6.27004C125.492 6.38067 123.222 6.52444 120.999 6.69977L121.156 8.69358ZM134.568 8.04568C136.788 8.00295 139.049 7.98989 141.351 8.0078L141.367 6.00786C139.046 5.98981 136.767 6.00297 134.53 6.04605L134.568 8.04568ZM148.03 8.14384C150.242 8.21617 152.49 8.31622 154.775 8.44504L154.887 6.44822C152.587 6.31852 150.323 6.21776 148.096 6.14491L148.03 8.14384ZM161.481 8.89837C162.615 8.98757 163.759 9.08369 164.911 9.18682L165.089 7.19479C163.93 7.09102 162.779 6.9943 161.637 6.90452L161.481 8.89837Z" fill="#FF0000"/>
</svg>
